Coordinates
version=1
nRows=23
nColumns=28
inDegrees=yes

Units are S.I. units (second, meters, Newtons, ...)
Angles are in degrees.

endheader
time	pelvis_tilt	pelvis_list	pelvis_rotation	pelvis_tx	pelvis_ty	pelvis_tz	hip_flexion_r	hip_adduction_r	hip_rotation_r	knee_angle_r	ankle_angle_r	subtalar_angle_r	mtp_angle_r	hip_flexion_l	hip_adduction_l	hip_rotation_l	knee_angle_l	socket_flexion	socket_adduction	socket_rotation	socket_tx	socket_ty	socket_tz	foot_flex	lumbar_extension	lumbar_bending	lumbar_rotation
      0.00000000	      2.01795353	    -10.52850866	    -15.18769190	     -0.87184860	      0.98411465	      0.32899407	    -26.65022921	      8.68339077	     17.60094800	     -9.76261666	      9.10504901	    -11.43117914	     20.86237421	     28.70948561	    -17.55721248	     -9.41732890	    -23.88741885	    -10.18687422	      0.00000000	      0.00000000	      0.00000000	      0.00666436	      0.00000000	      2.38756385	    -14.71675647	      6.11236086	     21.44452685
      0.00416667	      1.93131774	    -10.58126581	    -15.12339069	     -0.86629008	      0.98334609	      0.32854269	    -26.74285314	      8.72220016	     17.62892398	     -9.98838748	      9.03620244	    -11.44926346	     20.85898756	     28.51671257	    -17.50359435	     -9.42667775	    -23.88716693	    -10.25257149	      0.00000000	      0.00000000	      0.00000000	      0.00620713	      0.00000000	      2.26441812	    -14.54376959	      6.18548248	     21.44110354
      0.00833333	      1.80101691	    -10.72973924	    -15.21959772	     -0.86075124	      0.98263441	      0.32811769	    -26.63172276	      8.82244572	     17.53854780	    -10.57542805	      8.66253417	    -11.58197770	     20.83724088	     28.21797547	    -17.60030930	     -9.50848433	    -23.63966391	    -10.21915537	      0.00000000	      0.00000000	      0.00000000	      0.00535848	      0.00000000	      1.74028515	    -14.42736147	      6.39001333	     21.42923400
      0.01250000	      1.57930797	    -10.80590546	    -15.37934789	     -0.85476265	      0.98179803	      0.32791479	    -26.53306413	      8.84618524	     17.73557313	    -10.98737938	      8.25392479	    -11.88386688	     21.10401851	     27.92554737	    -17.67480453	     -9.69731840	    -23.24293604	    -10.06767037	      0.00000000	      0.00000000	      0.00000000	      0.00441396	      0.00000000	      1.46208237	    -14.12308638	      6.49234417	     21.63820314
      0.01666667	      1.48152246	    -10.88750521	    -15.39719731	     -0.84869768	      0.98106138	      0.32743567	    -26.51747013	      8.88822457	     17.69034945	    -11.45359216	      7.97845858	    -11.96030136	     21.11549143	     27.65425783	    -17.67025352	     -9.75507253	    -23.16411364	    -10.10982808	      0.00000000	      0.00000000	      0.00000000	      0.00369911	      0.00000000	      1.12668811	    -13.98844189	      6.61365545	     21.61338746
      0.02083333	      1.39404882	    -10.93072072	    -15.32046620	     -0.84233628	      0.98025707	      0.32691878	    -26.61906049	      8.91551402	     17.73913909	    -11.71715772	      7.89290866	    -11.96605725	     21.11698283	     27.43111973	    -17.59388310	     -9.75547604	    -23.18109894	    -10.16823130	      0.00000000	      0.00000000	      0.00000000	      0.00309928	      0.00000000	      1.03724138	    -13.78188201	      6.67686761	     21.60849113
      0.02500000	      1.27173587	    -11.02854084	    -15.44137201	     -0.83614979	      0.97958937	      0.32655184	    -26.47516043	      8.95350184	     17.63573860	    -12.39648784	      7.41942388	    -12.05807556	     21.09500028	     27.09346467	    -17.64750164	     -9.81079243	    -22.97574423	    -10.16978576	      0.00000000	      0.00000000	      0.00000000	      0.00213294	      0.00000000	      0.43986488	    -13.65080761	      6.79518692	     21.56532705
      0.02916667	      0.98021667	    -10.99893548	    -15.70547499	     -0.82953369	      0.97880199	      0.32650365	    -26.20185449	      8.85996157	     17.76680491	    -12.96548589	      6.66193785	    -12.46918345	     21.80156169	     26.75543540	    -17.66204596	    -10.17784963	    -22.42530622	     -9.88863610	      0.00000000	      0.00000000	      0.00000000	      0.00099200	      0.00000000	      0.21897447	    -13.22353343	      6.79556844	     21.84194783
      0.03333333	      0.91698070	    -11.05908442	    -15.69557765	     -0.82313515	      0.97818366	      0.32599826	    -26.17878682	      8.88971572	     17.74831941	    -13.51023651	      6.33822737	    -12.50947529	     21.83512424	     26.46855090	    -17.62141684	    -10.17145757	    -22.41288417	     -9.93163154	      0.00000000	      0.00000000	      0.00000000	      0.00022693	      0.00000000	     -0.13935354	    -13.10302064	      6.87183457	     21.78769572
      0.03750000	      0.83153790	    -11.10398586	    -15.72094737	     -0.81660895	      0.97758470	      0.32556233	    -26.09727766	      8.89970241	     17.68611062	    -14.10721867	      5.89640737	    -12.56805093	     21.86855400	     26.17107621	    -17.58644937	    -10.21609245	    -22.35433709	     -9.93588137	      0.00000000	      0.00000000	      0.00000000	     -0.00063054	      0.00000000	     -0.44693493	    -12.95065520	      6.93260888	     21.73143501
      0.04166667	      0.76234797	    -11.12524735	    -15.62785447	     -0.80978366	      0.97696468	      0.32503291	    -26.17846699	      8.91103150	     17.75530693	    -14.42678551	      5.76977279	    -12.56844723	     21.87478472	     25.93008073	    -17.48162214	    -10.20653195	    -22.41322833	     -9.95770007	      0.00000000	      0.00000000	      0.00000000	     -0.00144265	      0.00000000	     -0.52590611	    -12.72235431	      6.97706188	     21.71872846
      0.04583333	      0.58264061	    -11.02626333	    -15.81798689	     -0.80328486	      0.97647269	      0.32484980	    -25.76560322	      8.77438179	     17.53007328	    -15.35881787	      4.74517750	    -12.77977116	     22.11118017	     25.62720893	    -17.38814594	    -10.45411616	    -22.15760261	     -9.82092867	      0.00000000	      0.00000000	      0.00000000	     -0.00233208	      0.00000000	     -0.92940637	    -12.46351105	      6.88094772	     21.64609955
      0.05000000	      0.52973729	    -11.03300299	    -15.72007727	     -0.79636421	      0.97597204	      0.32435838	    -25.82857899	      8.77821482	     17.62660812	    -15.72556588	      4.60417861	    -12.77899788	     22.12758380	     25.36943566	    -17.26980550	    -10.40612405	    -22.23115228	     -9.84776777	      0.00000000	      0.00000000	      0.00000000	     -0.00322783	      0.00000000	     -1.04077775	    -12.23138365	      6.90054872	     21.62913123
      0.05416667	      0.37041289	    -10.83112728	    -15.87157682	     -0.78985013	      0.97561467	      0.32419655	    -25.36803389	      8.56409344	     17.34391917	    -16.69456799	      3.48142558	    -13.04832372	     22.60601339	     25.12268683	    -17.06566791	    -10.66549694	    -22.09897158	     -9.73722861	      0.00000000	      0.00000000	      0.00000000	     -0.00392405	      0.00000000	     -1.42464107	    -11.95070673	      6.65726832	     21.52792251
      0.05833333	      0.29239936	    -10.64536510	    -15.87782635	     -0.78309514	      0.97519091	      0.32375053	    -25.08919563	      8.32874519	     16.96219321	    -17.38972513	      1.97577260	    -13.42554375	     27.60457725	     24.86717529	    -16.79580764	    -10.74499469	    -22.08319766	     -9.69267378	      0.00000000	      0.00000000	      0.00000000	     -0.00472081	      0.00000000	     -1.68012590	    -11.69475177	      6.47079654	     21.42344684
      0.06250000	      0.28262753	    -10.58216491	    -15.84082817	     -0.77665319	      0.97504310	      0.32334322	    -24.91796300	      8.28668274	     16.97829914	    -18.16152782	      1.47936759	    -13.43719991	     27.53905097	     24.60777769	    -16.63923345	    -10.71089119	    -22.20103467	     -9.67952217	      0.00000000	      0.00000000	      0.00000000	     -0.00534792	      0.00000000	     -1.91061259	    -11.59977490	      6.36277383	     21.33170011
      0.06666667	      0.22162777	    -10.36928954	    -15.82958311	     -0.76988829	      0.97486686	      0.32298389	    -24.60376674	      8.07974523	     16.68190157	    -19.00583166	      0.67053227	    -13.53437391	     27.49742456	     24.39275049	    -16.35559306	    -10.88863850	    -22.32963594	     -9.67505169	      0.00000000	      0.00000000	      0.00000000	     -0.00593379	      0.00000000	     -2.05773257	    -11.34681528	      6.12742562	     21.17299613
      0.07083333	      0.19136004	    -10.17338974	    -15.77385919	     -0.76328535	      0.97476935	      0.32260395	    -24.30225688	      7.92413441	     16.49452063	    -19.87865855	     -0.02107514	    -13.59256925	     27.54656735	     24.18539305	    -16.07425307	    -10.94162580	    -22.48142201	     -9.65205934	      0.00000000	      0.00000000	      0.00000000	     -0.00646599	      0.00000000	     -2.23166384	    -11.14587038	      5.88787846	     21.00704848
      0.07500000	      0.10111627	     -9.86155771	    -15.65853402	     -0.75658884	      0.97464335	      0.32216666	    -23.86537604	      7.69154214	     16.12915673	    -20.78737485	     -0.82460607	    -13.62796675	     27.96234528	     24.09264151	    -15.66332470	    -10.99539659	    -22.65962892	     -9.63458781	      0.00000000	      0.00000000	      0.00000000	     -0.00678331	      0.00000000	     -2.39690870	    -10.83377829	      5.53700040	     20.74159364
      0.07916667	      0.13904412	     -9.74395950	    -15.59291855	     -0.75027579	      0.97479495	      0.32173193	    -23.57048254	      7.62157957	     16.06198865	    -21.77365724	     -1.48138370	    -13.63598574	     27.98061197	     23.83887575	    -15.44997571	    -10.98258309	    -22.85157575	     -9.60307767	      0.00000000	      0.00000000	      0.00000000	     -0.00726052	      0.00000000	     -2.51718720	    -10.78767843	      5.35483834	     20.60094432
      0.08333333	      0.06341805	     -9.29698897	    -15.42871938	     -0.74350041	      0.97474160	      0.32128673	    -23.03679099	      7.26263080	     15.47862746	    -22.77223407	     -2.45558853	    -13.64327891	     28.52562322	     23.79097421	    -14.89842525	    -11.10640383	    -23.11839265	     -9.60485657	      0.00000000	      0.00000000	      0.00000000	     -0.00740619	      0.00000000	     -2.62363382	    -10.42522750	      4.86596588	     20.26185994
      0.08750000	      0.12730131	     -9.17363310	    -15.33572403	     -0.73725452	      0.97502124	      0.32085963	    -22.69170209	      7.21413178	     15.39534833	    -23.86985803	     -3.15807188	    -13.63848087	     28.55935060	     23.52703346	    -14.67618181	    -11.09245870	    -23.32909648	     -9.56917439	      0.00000000	      0.00000000	      0.00000000	     -0.00781088	      0.00000000	     -2.71245127	    -10.42549521	      4.66220736	     20.10623327
      0.09166667	      0.10135121	     -8.69242571	    -15.15088108	     -0.73059429	      0.97516313	      0.32035072	    -22.11413343	      6.81591672	     14.77652833	    -24.98065799	     -4.20647322	    -13.63119294	     28.97703865	     23.45011935	    -14.07863268	    -11.22840706	    -23.62636820	     -9.58181929	      0.00000000	      0.00000000	      0.00000000	     -0.00776603	      0.00000000	     -2.78170546	    -10.11724773	      4.10444609	     19.75274237
